<?xml version="1.0" standalone="no"?>
<!DOCTYPE svg PUBLIC "-//W3C//DTD SVG 20010904//EN"
 "http://www.w3.org/TR/2001/REC-SVG-20010904/DTD/svg10.dtd">
<svg version="1.0" xmlns="http://www.w3.org/2000/svg"
 width="560.000000pt" height="560.000000pt" viewBox="0 0 560.000000 560.000000"
 preserveAspectRatio="xMidYMid meet">
<metadata>
Created by potrace 1.14, written by Peter Selinger 2001-2017
</metadata>
<g transform="translate(0.000000,560.000000) scale(0.100000,-0.100000)"
fill="#000000" stroke="none">
<path d="M2736 5591 c-4 -6 -30 -9 -59 -8 -49 2 -54 0 -93 -40 -23 -23 -39
-44 -37 -47 5 -5 -72 -34 -107 -40 -36 -7 -173 -44 -203 -55 -14 -5 -28 -7
-31 -4 -3 4 -6 1 -6 -5 0 -7 -6 -12 -13 -12 -21 0 -181 -162 -242 -245 -17
-22 -34 -43 -40 -47 -5 -4 -6 -8 -2 -8 5 0 2 -7 -5 -15 -29 -32 -34 -41 -36
-70 -1 -16 -7 -31 -12 -33 -6 -2 -10 -12 -10 -21 0 -10 -3 -21 -7 -25 -5 -4
-8 -11 -9 -14 0 -4 -8 -25 -17 -46 -10 -22 -20 -50 -23 -63 -4 -13 -10 -23
-16 -23 -5 0 -7 -4 -3 -9 3 -5 -1 -27 -10 -48 -8 -21 -16 -47 -18 -58 -2 -11
-7 -27 -10 -35 -8 -21 -16 -169 -18 -340 0 -93 -6 -158 -14 -180 -37 -99 -43
-120 -49 -176 -3 -34 -15 -88 -26 -120 -13 -37 -20 -83 -20 -133 0 -73 -2 -78
-71 -215 -69 -137 -149 -260 -195 -301 -20 -18 -101 -173 -108 -207 -2 -7 -6
-20 -9 -28 -19 -52 -34 -109 -30 -114 3 -3 2 -13 -3 -23 -16 -38 -23 -121 -10
-127 7 -3 7 -5 -1 -5 -12 -1 -6 -41 7 -41 5 0 7 -8 5 -17 -1 -10 3 -24 9 -32
7 -10 7 -13 0 -8 -6 3 -11 0 -11 -8 0 -8 4 -12 9 -8 6 3 8 -3 7 -13 -2 -11 0
-25 4 -32 6 -8 4 -12 -5 -10 -7 2 -12 -4 -10 -13 1 -9 -3 -30 -9 -45 -7 -16
-13 -40 -14 -54 -1 -14 -5 -36 -10 -50 -4 -14 -9 -34 -11 -45 -2 -11 -6 -40
-10 -65 -9 -51 -9 -315 0 -405 8 -89 10 -95 19 -95 4 0 5 -4 2 -10 -3 -5 -2
-10 3 -10 5 0 10 -12 10 -27 0 -15 4 -29 11 -31 6 -2 15 -20 21 -40 5 -20 29
-65 52 -100 99 -144 123 -183 195 -306 41 -71 83 -152 93 -180 34 -88 110
-209 175 -276 34 -36 82 -99 105 -142 36 -63 50 -79 84 -94 25 -12 88 -66 164
-142 86 -87 145 -137 200 -169 42 -25 83 -46 90 -46 6 0 12 -3 12 -7 0 -4 6
-7 13 -8 6 -1 47 -9 89 -18 42 -9 84 -14 92 -11 24 9 82 109 89 152 10 61 62
153 123 218 50 54 61 60 141 83 48 14 119 45 158 68 38 24 95 51 125 60 67 21
200 94 352 194 45 28 86 52 92 52 6 0 72 30 146 67 130 64 139 70 246 177 60
61 120 130 133 152 15 27 44 54 85 80 33 22 88 64 121 94 33 30 71 64 85 75
25 20 140 149 153 172 28 47 78 218 87 296 16 141 44 251 78 304 16 27 43 75
59 108 17 33 42 78 56 99 l27 39 0 269 c0 185 -4 276 -12 291 -15 29 -79 109
-127 160 -22 23 -56 59 -75 80 -20 20 -36 43 -36 49 0 6 -3 9 -6 5 -16 -16
-140 143 -132 169 1 5 -6 20 -17 33 -61 74 -73 89 -93 118 -21 29 -21 32 -5
37 10 3 89 6 176 8 86 1 157 6 157 10 0 4 7 8 16 8 13 0 15 6 9 28 -3 15 -10
28 -15 30 -4 2 -21 14 -37 28 -15 13 -34 24 -40 24 -7 0 -13 4 -13 9 0 14
-101 55 -145 59 -22 2 -47 9 -55 16 -21 17 -85 46 -102 46 -23 0 -138 81 -138
96 0 10 18 14 70 15 39 1 75 3 80 4 6 1 21 3 34 4 26 1 41 27 31 54 -8 19
-106 87 -165 114 -25 11 -70 25 -100 32 -30 6 -66 20 -79 30 l-24 18 49 17
c27 10 85 19 129 22 67 3 197 14 215 19 28 7 50 18 50 26 0 6 4 8 9 5 9 -6 57
27 96 66 56 56 114 219 114 321 0 66 -24 168 -42 179 -23 15 -64 8 -85 -14
-37 -40 -34 -39 -175 -103 -32 -14 -61 -23 -66 -20 -5 2 -12 -2 -15 -11 -3 -8
-10 -13 -16 -9 -5 3 -18 1 -28 -4 -11 -6 -30 -12 -43 -15 -13 -3 -49 -12 -79
-21 -30 -8 -103 -17 -162 -20 -107 -5 -108 -5 -130 21 -13 15 -27 32 -33 38
-5 6 -16 23 -24 39 -8 15 -18 27 -23 27 -5 0 -6 5 -3 10 3 6 2 10 -3 10 -9 0
-55 63 -62 85 -2 6 -12 19 -22 29 -10 11 -18 26 -18 33 0 7 -4 13 -8 13 -5 0
-15 12 -23 28 -8 15 -16 29 -19 32 -3 3 -19 23 -35 45 -16 22 -53 64 -82 93
-29 29 -54 58 -56 65 -3 17 -35 39 -47 32 -6 -3 -10 -1 -10 5 0 6 -8 10 -17 9
-10 -2 -49 1 -88 4 -57 6 -142 12 -282 20 -7 0 -10 4 -8 8 5 8 -85 55 -97 51
-5 -1 -8 3 -8 9 0 6 -6 9 -12 6 -7 -2 -21 2 -30 11 -14 11 -21 12 -32 3 -10
-8 -16 -9 -21 -1 -3 5 -22 10 -41 10 -26 0 -33 -3 -28 -12 6 -10 4 -10 -8 0
-10 8 -18 9 -22 3z"/>
</g>
</svg>
