<?xml version="1.0" standalone="no"?>
<!DOCTYPE svg PUBLIC "-//W3C//DTD SVG 20010904//EN"
 "http://www.w3.org/TR/2001/REC-SVG-20010904/DTD/svg10.dtd">
<svg version="1.0" xmlns="http://www.w3.org/2000/svg"
 width="512.000000pt" height="512.000000pt" viewBox="0 0 512.000000 512.000000"
 preserveAspectRatio="xMidYMid meet">
<metadata>
Created by potrace 1.14, written by Peter Selinger 2001-2017
</metadata>
<g transform="translate(0.000000,512.000000) scale(0.100000,-0.100000)"
fill="#000000" stroke="none">
<path d="M2464 5113 c5 -9 -2 -12 -25 -9 -24 3 -38 -3 -59 -23 -64 -60 -98
-89 -102 -86 -2 2 -21 -1 -43 -6 -22 -6 -49 -12 -60 -14 -11 -2 -33 -8 -48
-14 -15 -6 -31 -10 -35 -9 -7 1 -31 -7 -72 -25 -14 -6 -27 -10 -30 -9 -10 1
-198 -197 -192 -203 3 -3 1 -5 -5 -5 -5 0 -18 -16 -29 -35 -10 -19 -22 -35
-26 -35 -5 0 -8 -6 -8 -14 0 -8 -5 -16 -10 -18 -6 -2 -13 -17 -16 -33 -3 -17
-9 -32 -15 -33 -5 -2 -7 -8 -4 -13 3 -5 0 -19 -7 -31 -7 -13 -11 -27 -10 -32
2 -5 -2 -13 -9 -17 -7 -4 -14 -15 -15 -25 -2 -10 -9 -34 -18 -54 -13 -32 -27
-72 -27 -77 0 -2 -5 -17 -10 -35 -17 -61 -20 -92 -24 -278 -5 -204 -7 -234
-22 -252 -16 -20 -31 -77 -38 -141 -3 -31 -13 -76 -22 -100 -9 -23 -17 -79
-19 -124 -3 -78 -6 -88 -66 -205 -56 -112 -152 -257 -182 -275 -15 -10 -91
-162 -92 -185 -1 -10 -7 -24 -14 -33 -7 -8 -10 -15 -6 -15 3 0 1 -12 -4 -26
-6 -15 -13 -41 -15 -58 -3 -17 -9 -48 -14 -68 -5 -23 -5 -40 1 -46 6 -6 6 -12
0 -16 -5 -3 -7 -17 -5 -31 3 -13 8 -23 12 -21 4 3 8 -5 8 -17 1 -12 4 -39 7
-59 4 -21 2 -38 -3 -38 -5 0 -8 -8 -6 -17 1 -10 0 -22 -4 -28 -8 -14 -17 -58
-20 -98 0 -10 -4 -16 -8 -14 -5 3 -9 -11 -10 -31 -2 -34 -10 -100 -13 -112 -1
-4 0 -167 2 -322 1 -27 5 -48 10 -48 4 0 8 -11 8 -24 0 -14 5 -28 11 -32 6 -3
9 -14 6 -24 -2 -10 4 -25 14 -34 11 -9 19 -23 19 -32 0 -14 27 -71 40 -84 3
-3 10 -12 15 -21 6 -9 30 -45 55 -80 25 -35 58 -89 74 -119 16 -30 32 -57 36
-60 3 -3 13 -18 22 -35 8 -16 27 -52 41 -80 14 -27 27 -57 29 -65 2 -8 5 -17
8 -20 3 -3 21 -36 40 -74 20 -39 64 -100 103 -141 37 -40 67 -77 67 -83 0 -6
3 -12 8 -14 4 -1 19 -25 34 -53 19 -36 38 -56 68 -71 46 -24 41 -20 180 -159
55 -56 120 -111 147 -125 26 -13 51 -28 54 -33 3 -4 16 -9 27 -10 12 -1 22 -4
22 -8 0 -7 84 -26 143 -33 37 -4 39 -3 74 52 21 31 37 69 38 84 2 44 61 150
114 204 42 43 61 54 124 72 41 12 104 39 141 61 36 21 96 48 134 61 37 12 74
27 82 34 8 6 31 20 50 30 19 11 37 22 40 25 3 3 25 17 50 30 25 13 65 38 90
56 25 17 86 49 135 70 50 22 121 57 160 79 77 44 209 172 257 248 19 32 52 62
100 94 40 26 88 63 108 83 21 20 55 52 76 71 95 87 130 137 170 245 30 81 30
83 38 156 6 53 10 81 22 137 3 15 7 41 10 57 3 17 13 46 23 65 55 106 77 145
84 148 4 2 7 12 7 21 0 10 9 26 20 36 11 10 20 24 20 32 0 7 4 13 9 13 5 0 9
115 9 257 l0 256 -33 46 c-28 38 -105 124 -180 202 -8 9 -15 21 -15 27 0 7 -3
11 -7 11 -21 -3 -32 3 -38 21 -3 11 -12 20 -18 20 -12 0 -56 74 -61 101 -3 19
-25 57 -26 44 0 -5 -8 2 -18 16 -9 15 -30 45 -46 68 -16 23 -26 44 -22 48 4 4
62 7 129 7 67 1 127 4 132 7 6 3 22 5 37 4 19 -1 29 4 34 17 7 24 -14 48 -80
90 -28 18 -53 35 -56 38 -3 3 -14 7 -25 8 -11 2 -24 7 -30 11 -5 4 -26 8 -45
10 -19 1 -45 12 -58 24 -13 12 -24 20 -25 18 -9 -19 -169 66 -181 97 -5 11 60
18 117 13 9 -1 17 4 17 11 0 9 3 9 10 -2 6 -9 10 -11 10 -3 0 7 6 10 14 7 18
-7 38 28 30 50 -3 9 -12 16 -19 16 -7 0 -15 4 -17 8 -9 24 -123 86 -178 98
-39 8 -55 12 -57 14 -2 2 -6 3 -10 4 -5 1 -19 8 -33 16 l-25 13 35 15 c51 21
66 23 160 28 47 2 105 6 130 9 25 4 51 7 58 7 6 1 12 5 12 8 0 4 13 13 28 19
34 14 92 65 92 81 0 6 5 8 12 4 7 -5 9 -2 5 9 -3 9 0 18 9 21 8 3 14 10 14 16
0 6 7 27 16 48 10 20 18 46 20 57 1 11 6 32 11 48 7 23 1 136 -10 187 -12 57
-53 71 -98 33 -19 -15 -36 -31 -39 -34 -15 -19 -245 -111 -254 -101 -3 3 -6 0
-6 -7 0 -7 -4 -9 -10 -6 -5 3 -19 1 -29 -5 -11 -6 -35 -13 -53 -15 -18 -3 -49
-8 -68 -11 -93 -13 -170 -11 -190 6 -11 9 -17 20 -13 24 3 3 -1 6 -10 6 -10 0
-17 7 -17 15 0 8 -4 15 -9 15 -5 0 -13 10 -17 22 -7 23 -15 34 -51 73 -13 13
-23 29 -23 35 0 6 -9 20 -20 32 -11 12 -20 28 -20 35 0 7 -4 13 -10 13 -5 0
-10 7 -10 15 0 8 -4 15 -8 15 -4 0 -16 15 -27 33 -10 17 -31 44 -47 60 -15 15
-25 27 -22 27 2 0 -14 18 -38 41 -24 23 -42 45 -41 49 4 16 -23 29 -72 35 -28
3 -70 8 -95 11 -24 3 -46 7 -48 9 -2 2 -15 0 -29 -6 -13 -5 -22 -5 -19 -1 3 5
-27 8 -65 8 -58 -1 -73 2 -80 17 -6 10 -14 15 -20 12 -5 -4 -9 -1 -9 4 0 6 -3
10 -7 10 -19 -3 -34 2 -29 9 2 4 -7 9 -21 10 -14 1 -32 7 -39 13 -8 6 -23 9
-34 6 -11 -3 -23 -1 -26 4 -8 13 -104 11 -104 -2 0 -8 -6 -7 -17 2 -11 9 -14
10 -9 2z"/>
</g>
</svg>
