<svg id="visual" viewBox="0 0 900 600" width="900" height="600" xmlns="http://www.w3.org/2000/svg" xmlns:xlink="http://www.w3.org/1999/xlink" version="1.1"><rect x="0" y="0" width="900" height="600" fill="#162222"></rect><path d="M0 520L11.5 520.2C23 520.3 46 520.7 69 519.7C92 518.7 115 516.3 138.2 516.5C161.3 516.7 184.7 519.3 207.8 519C231 518.7 254 515.3 277 516C300 516.7 323 521.3 346 524C369 526.7 392 527.3 415.2 528.7C438.3 530 461.7 532 484.8 532.3C508 532.7 531 531.3 554 528.8C577 526.3 600 522.7 623 519.5C646 516.3 669 513.7 692.2 512.8C715.3 512 738.7 513 761.8 512.8C785 512.7 808 511.3 831 514.2C854 517 877 524 888.5 527.5L900 531L900 601L888.5 601C877 601 854 601 831 601C808 601 785 601 761.8 601C738.7 601 715.3 601 692.2 601C669 601 646 601 623 601C600 601 577 601 554 601C531 601 508 601 484.8 601C461.7 601 438.3 601 415.2 601C392 601 369 601 346 601C323 601 300 601 277 601C254 601 231 601 207.8 601C184.7 601 161.3 601 138.2 601C115 601 92 601 69 601C46 601 23 601 11.5 601L0 601Z" fill="#deac60"></path><path d="M0 561L11.5 560.7C23 560.3 46 559.7 69 561.2C92 562.7 115 566.3 138.2 568.2C161.3 570 184.7 570 207.8 568C231 566 254 562 277 561.7C300 561.3 323 564.7 346 566.7C369 568.7 392 569.3 415.2 567.5C438.3 565.7 461.7 561.3 484.8 558.8C508 556.3 531 555.7 554 555.5C577 555.3 600 555.7 623 557.7C646 559.7 669 563.3 692.2 563.8C715.3 564.3 738.7 561.7 761.8 561.3C785 561 808 563 831 562.3C854 561.7 877 558.3 888.5 556.7L900 555L900 601L888.5 601C877 601 854 601 831 601C808 601 785 601 761.8 601C738.7 601 715.3 601 692.2 601C669 601 646 601 623 601C600 601 577 601 554 601C531 601 508 601 484.8 601C461.7 601 438.3 601 415.2 601C392 601 369 601 346 601C323 601 300 601 277 601C254 601 231 601 207.8 601C184.7 601 161.3 601 138.2 601C115 601 92 601 69 601C46 601 23 601 11.5 601L0 601Z" fill="#177e89"></path></svg>