<svg id="visual" viewBox="0 0 900 600" width="900" height="600" xmlns="http://www.w3.org/2000/svg" xmlns:xlink="http://www.w3.org/1999/xlink" version="1.1"><rect x="0" y="0" width="900" height="600" fill="#162222"></rect><path d="M0 527L11.5 529.2C23 531.3 46 535.7 69 534.8C92 534 115 528 138.2 525.7C161.3 523.3 184.7 524.7 207.8 520.5C231 516.3 254 506.7 277 504C300 501.3 323 505.7 346 508.2C369 510.7 392 511.3 415.2 511C438.3 510.7 461.7 509.3 484.8 512.7C508 516 531 524 554 530.5C577 537 600 542 623 539.5C646 537 669 527 692.2 519.8C715.3 512.7 738.7 508.3 761.8 510.7C785 513 808 522 831 529.5C854 537 877 543 888.5 546L900 549L900 601L888.5 601C877 601 854 601 831 601C808 601 785 601 761.8 601C738.7 601 715.3 601 692.2 601C669 601 646 601 623 601C600 601 577 601 554 601C531 601 508 601 484.8 601C461.7 601 438.3 601 415.2 601C392 601 369 601 346 601C323 601 300 601 277 601C254 601 231 601 207.8 601C184.7 601 161.3 601 138.2 601C115 601 92 601 69 601C46 601 23 601 11.5 601L0 601Z" fill="#177e89"></path><path d="M0 556L11.5 555.7C23 555.3 46 554.7 69 557.2C92 559.7 115 565.3 138.2 567.2C161.3 569 184.7 567 207.8 561.8C231 556.7 254 548.3 277 544.2C300 540 323 540 346 542.7C369 545.3 392 550.7 415.2 556.2C438.3 561.7 461.7 567.3 484.8 564.8C508 562.3 531 551.7 554 552.8C577 554 600 567 623 570.3C646 573.7 669 567.3 692.2 560.7C715.3 554 738.7 547 761.8 545.2C785 543.3 808 546.7 831 549.3C854 552 877 554 888.5 555L900 556L900 601L888.5 601C877 601 854 601 831 601C808 601 785 601 761.8 601C738.7 601 715.3 601 692.2 601C669 601 646 601 623 601C600 601 577 601 554 601C531 601 508 601 484.8 601C461.7 601 438.3 601 415.2 601C392 601 369 601 346 601C323 601 300 601 277 601C254 601 231 601 207.8 601C184.7 601 161.3 601 138.2 601C115 601 92 601 69 601C46 601 23 601 11.5 601L0 601Z" fill="#deac60"></path></svg>